<svg preserveAspectRatio="xMidYMid meet" data-bbox="29.5 29.5 141 141" viewBox="29.5 29.5 141 141" height="200" width="200" xmlns="http://www.w3.org/2000/svg" data-type="color" role="presentation" aria-hidden="true" aria-label=""><defs><style>#comp-lmjz8xsw svg [data-color="1"] {fill: #33343F;}</style></defs>
    <g>
        <path d="M100 29.5c-38.874 0-70.5 31.626-70.5 70.5s31.626 70.5 70.5 70.5 70.5-31.626 70.5-70.5-31.626-70.5-70.5-70.5zm0 133c-34.463 0-62.5-28.037-62.5-62.5S65.537 37.5 100 37.5s62.5 28.037 62.5 62.5-28.037 62.5-62.5 62.5zm0-106.4c-24.207 0-43.9 19.693-43.9 43.9s19.693 43.9 43.9 43.9 43.9-19.693 43.9-43.9-19.693-43.9-43.9-43.9zm0 79.8c-19.796 0-35.9-16.104-35.9-35.9S80.204 64.1 100 64.1s35.9 16.104 35.9 35.9-16.104 35.9-35.9 35.9zm0-53.2c-9.539 0-17.3 7.761-17.3 17.3s7.761 17.3 17.3 17.3 17.3-7.761 17.3-17.3-7.761-17.3-17.3-17.3zm0 26.6c-5.128 0-9.3-4.172-9.3-9.3s4.172-9.3 9.3-9.3 9.3 4.172 9.3 9.3-4.172 9.3-9.3 9.3z" fill="#000001" data-color="1"></path>
    </g>
</svg>