<svg preserveAspectRatio="xMidYMid meet" data-bbox="30 33 140.001 134.001" viewBox="30 33 140.001 134.001" height="200" width="200" xmlns="http://www.w3.org/2000/svg" data-type="color" role="presentation" aria-hidden="true" aria-label=""><defs><style>#comp-lmjz8xt42 svg [data-color="1"] {fill: #33343F;}</style></defs>
    <g>
        <path d="M140.805 167c-.63 0-1.263-.151-1.843-.457L100 145.986l-38.962 20.558a3.947 3.947 0 0 1-4.181-.31 4.014 4.014 0 0 1-1.577-3.912l7.436-43.497-31.51-30.793a4.02 4.02 0 0 1-1.013-4.102 3.98 3.98 0 0 1 3.207-2.728l43.564-6.388 19.478-39.59C97.111 33.862 98.49 33 100 33s2.889.862 3.559 2.224l19.478 39.59 43.564 6.388a3.981 3.981 0 0 1 3.207 2.728 4.021 4.021 0 0 1-1.013 4.102l-31.51 30.793 7.436 43.497a4.013 4.013 0 0 1-1.577 3.912 3.952 3.952 0 0 1-2.339.766zM100 137.47a3.94 3.94 0 0 1 1.843.457l33.684 17.773-6.428-37.598a4.018 4.018 0 0 1 1.149-3.549l27.224-26.604-37.641-5.52a3.969 3.969 0 0 1-2.986-2.182L100 46.009 83.155 80.246a3.972 3.972 0 0 1-2.986 2.182l-37.641 5.52 27.224 26.604a4.016 4.016 0 0 1 1.149 3.549L64.472 155.7l33.684-17.773a3.96 3.96 0 0 1 1.844-.457z" fill="#000001" data-color="1"></path>
    </g>
</svg>