<svg preserveAspectRatio="xMidYMid meet" data-bbox="43 29.501 114 140.999" viewBox="43 29.501 114 140.999" height="200" width="200" xmlns="http://www.w3.org/2000/svg" data-type="color" role="presentation" aria-hidden="true" aria-label="">
    <g>
        <path d="M156.92 72.609c-.03-.148-.084-.286-.13-.428-.034-.106-.056-.216-.099-.319-.062-.148-.146-.284-.225-.423-.049-.087-.087-.18-.143-.264-.102-.152-.225-.288-.347-.424-.05-.056-.089-.121-.142-.174l-39.75-39.9-.004-.003a4.034 4.034 0 0 0-.602-.495c-.05-.034-.107-.055-.159-.086a3.89 3.89 0 0 0-.529-.283c-.073-.03-.151-.044-.225-.07-.171-.06-.341-.123-.523-.159a3.948 3.948 0 0 0-.792-.08h-53C50.738 29.5 43 37.261 43 46.8v106.4c0 9.539 7.738 17.3 17.25 17.3h79.5c9.512 0 17.25-7.761 17.25-17.3V73.4a4.02 4.02 0 0 0-.08-.791zm-39.67-29.426L143.369 69.4H117.25V43.183zm22.5 119.317h-79.5c-5.101 0-9.25-4.172-9.25-9.3V46.8c0-5.128 4.149-9.3 9.25-9.3h49v35.9a4 4 0 0 0 4 4H149v75.8c0 5.128-4.149 9.3-9.25 9.3zm-9.25-55.85a4 4 0 0 1-4 4h-53a4 4 0 0 1 0-8h53a4 4 0 0 1 4 4zm0 26.6a4 4 0 0 1-4 4h-53a4 4 0 0 1 0-8h53a4 4 0 0 1 4 4zm-61-53.2a4 4 0 0 1 4-4h13.25a4 4 0 0 1 0 8H73.5a4 4 0 0 1-4-4z" fill="#000001" data-color="1"></path>
    </g>
</svg>