<svg preserveAspectRatio="xMidYMid meet" data-bbox="29.5 29.5 141 141" viewBox="29.5 29.5 141 141" height="200" width="200" xmlns="http://www.w3.org/2000/svg" data-type="color" role="presentation" aria-hidden="true" aria-label=""><defs><style>#comp-lmjz8xs22 svg [data-color="1"] {fill: #33343F;}</style></defs>
    <g>
        <path d="M100 29.5c-38.874 0-70.5 31.626-70.5 70.5s31.626 70.5 70.5 70.5 70.5-31.626 70.5-70.5-31.626-70.5-70.5-70.5zm0 133c-34.463 0-62.5-28.038-62.5-62.5S65.537 37.5 100 37.5s62.5 28.038 62.5 62.5-28.037 62.5-62.5 62.5zm29.8-46.8c-.456.608-11.387 14.9-29.8 14.9s-29.344-14.292-29.8-14.9a4 4 0 0 1 6.393-4.81c.091.12 9.073 11.711 23.407 11.711 14.336 0 23.318-11.594 23.407-11.711a4.006 4.006 0 0 1 5.599-.776 3.994 3.994 0 0 1 .794 5.586zM73.583 80.05c0-3.59 2.877-6.5 6.467-6.5h.066a6.5 6.5 0 1 1 0 13c-3.59 0-6.533-2.91-6.533-6.5zm39.9 0c0-3.59 2.877-6.5 6.467-6.5h.066a6.5 6.5 0 1 1 0 13c-3.59 0-6.533-2.91-6.533-6.5z" fill="#000001" data-color="1"></path>
    </g>
</svg>